<?xml version="1.0" encoding="UTF-8"?>
<svg width="40px" height="40px" viewBox="0 0 40 40" version="1.1" xmlns="http://www.w3.org/2000/svg" xmlns:xlink="http://www.w3.org/1999/xlink">
    <!-- Generator: Sketch 49.2 (51160) - http://www.bohemiancoding.com/sketch -->
    <title>linkedin</title>
    <desc>Created with Sketch.</desc>
    <defs></defs>
    <g id="Symbols" stroke="none" stroke-width="1" fill="none" fill-rule="evenodd">
        <g id="socNetw_hover" transform="translate(-105.000000, 0.000000)" fill-rule="nonzero">
            <g id="socNetw">
                <g id="linkedin" transform="translate(105.000000, 0.000000)">
                    <circle id="Oval" fill="#000000" cx="20" cy="20" r="20"></circle>
                    <path d="M31.8987342,21.3740505 L31.8987342,29.5 L27.1226878,29.5 L27.1226878,21.9186381 C27.1226878,20.015041 26.4331191,18.7150577 24.7038548,18.7150577 C23.3841999,18.7150577 22.600243,19.5902627 22.254034,20.4377112 C22.1283017,20.7405722 22.0958891,21.1611343 22.0958891,21.5859127 L22.0958891,29.4996487 L17.3194865,29.4996487 C17.3194865,29.4996487 17.3835993,16.6593274 17.3194865,15.3301824 L22.0962453,15.3301824 L22.0962453,17.3381295 C22.0866284,17.3539401 22.0730934,17.3693994 22.0645451,17.3845073 L22.0962453,17.3845073 L22.0962453,17.3381295 C22.7309619,16.3747365 23.8629087,14.9974569 26.4007065,14.9974569 C29.5429454,14.9974569 31.8987342,17.02262 31.8987342,21.3740505 Z M12.3229633,8.5 C10.6891558,8.5 9.62025316,9.5579053 9.62025316,10.9478334 C9.62025316,12.3082483 10.6581679,13.3967208 12.2602752,13.3967208 L12.2912631,13.3967208 C13.957127,13.3967208 14.9929047,12.3082483 14.9929047,10.9478334 C14.9612045,9.5579053 13.957127,8.5 12.3229633,8.5 Z M9.90413034,29.5 L14.678752,29.5 L14.678752,15.3301824 L9.90413034,15.3301824 L9.90413034,29.5 Z" id="Shape" fill="#F1F2F2"></path>
                </g>
            </g>
        </g>
    </g>
</svg>