<?xml version="1.0" encoding="UTF-8"?>
<svg width="320px" height="294px" viewBox="0 0 320 294" version="1.1" xmlns="http://www.w3.org/2000/svg" xmlns:xlink="http://www.w3.org/1999/xlink">
    <!-- Generator: sketchtool 49.2 (51160) - http://www.bohemiancoding.com/sketch -->
    <title>46CA62EC-E17E-41FA-82DC-423192D8D985</title>
    <desc>Created with sketchtool.</desc>
    <defs></defs>
    <g id="Page-1" stroke="none" stroke-width="1" fill="none" fill-rule="evenodd">
        <g id="LC-landing-desktop-NEW" transform="translate(-792.000000, -7805.000000)">
            <g id="6-real-word" transform="translate(0.000000, 7525.000000)">
                <g id="Group-27" transform="translate(728.000000, 269.000000)">
                    <g id="Group" transform="translate(8.000000, 0.000000)">
                        <g id="Ilustration-1" transform="translate(58.000000, 13.000000)">
                            <g id="Page-1">
                                <path d="M215.069911,81.9307062 C215.069911,107.03642 235.335163,127.388011 260.332631,127.388011 C285.330877,127.388011 305.596906,107.03642 305.596906,81.9307062 C305.596906,56.8249919 285.330877,36.4734016 260.332631,36.4734016 C235.335163,36.4734016 215.069911,56.8249919 215.069911,81.9307062 Z" id="Stroke-1" stroke="#FFFFFF" stroke-width="4" stroke-linecap="round" stroke-linejoin="round"></path>
                                <path d="M292.031322,76.5399111 C300.832623,72.7347358 303.465697,81.2690216 302.545716,86.6484825 C301.734701,91.3932264 296.066938,96.1301536 290.349362,91.7387251" id="Stroke-3" stroke="#FFFFFF" stroke-width="4" stroke-linecap="round" stroke-linejoin="round"></path>
                                <path d="M263.964373,93.5915202 C269.352718,93.5915202 273.7199,89.2047817 273.7199,83.7940539 C273.7199,78.3825445 269.352718,73.9958059 263.964373,73.9958059 C258.576029,73.9958059 254.208068,78.3825445 254.208068,83.7940539 C254.208068,89.2047817 258.576029,93.5915202 263.964373,93.5915202 Z" id="Fill-5" fill="#FFFFFF"></path>
                                <path d="M254.208068,83.7940539 C254.208068,89.2047817 258.576029,93.5915202 263.964373,93.5915202 C269.352718,93.5915202 273.7199,89.2047817 273.7199,83.7940539 C273.7199,78.3825445 269.352718,73.9958059 263.964373,73.9958059 C258.576029,73.9958059 254.208068,78.3825445 254.208068,83.7940539 Z" id="Stroke-7" stroke="#FFFFFF" stroke-width="4" stroke-linecap="round" stroke-linejoin="round"></path>
                                <path d="M254.65615,87.7230458 C255.976189,90.7324798 259.475539,92.096496 262.472091,90.77 C265.467864,89.4442857 266.82682,85.9298922 265.50678,82.9204582 C264.186741,79.9118059 260.686613,78.5470081 257.690061,79.8727224 C254.693509,81.1984367 253.334554,84.7128302 254.65615,87.7230458 Z" id="Fill-9" fill="#00989A"></path>
                                <path d="M280.180855,70.4116873 C276.969486,67.6680216 274.315397,65.2972129 270.506274,63.4798275 C266.698707,61.662442 260.192688,61.2278329 257.053702,64.3803127" id="Stroke-11" stroke="#FFFFFF" stroke-width="4" stroke-linecap="round" stroke-linejoin="round"></path>
                                <path d="M230.146302,92.7548194 C224.757958,92.7548194 220.390775,88.3688625 220.390775,82.9573531 C220.390775,77.5458437 224.757958,73.1598868 230.146302,73.1598868 C235.534647,73.1598868 239.90183,77.5458437 239.90183,82.9573531 C239.90183,88.3688625 235.534647,92.7548194 230.146302,92.7548194 Z" id="Fill-13" fill="#FFFFFF"></path>
                                <path d="M239.90183,82.9573531 C239.90183,88.3688625 235.534647,92.7548194 230.146302,92.7548194 C224.757958,92.7548194 220.390775,88.3688625 220.390775,82.9573531 C220.390775,77.5458437 224.757958,73.1598868 230.146302,73.1598868 C235.534647,73.1598868 239.90183,77.5458437 239.90183,82.9573531 Z" id="Stroke-15" stroke="#FFFFFF" stroke-width="4" stroke-linecap="round" stroke-linejoin="round"></path>
                                <path d="M231.538259,86.7092965 C230.21822,89.7187305 226.71887,91.0835283 223.72154,89.7570323 C220.725767,88.4313181 219.367589,84.9169245 220.687629,81.9067089 C222.007668,78.8980566 225.507018,77.5340404 228.503569,78.8597547 C231.5009,80.185469 232.859077,83.6998625 231.538259,86.7092965 Z" id="Fill-17" fill="#00989A"></path>
                                <path d="M216.359752,71.1353585 C218.955466,68.2212884 220.596175,66.401558 223.759289,64.3801563 C226.920845,62.3587547 233.287545,62.1289434 237.772254,64.8311806" id="Stroke-19" stroke="#FFFFFF" stroke-width="4" stroke-linecap="round" stroke-linejoin="round"></path>
                                <path d="M234.63288,120.898968 C216.248062,132.60762 206.858348,162.16886 204.140436,171.337863 C199.409776,187.293334 197.30285,201.486137 196.965057,215.022337 C196.516742,233.03673 197.862466,249.24859 203.817432,258.760747 C206.434161,262.939561 210.553835,266.936245 216.032466,267.337243" id="Stroke-21" stroke="#FFFFFF" stroke-width="4" stroke-linecap="round" stroke-linejoin="round"></path>
                                <path d="M305.93252,254.653299 C305.03589,268.163704 304.138481,278.971871 302.62853,286.16559" id="Stroke-23" stroke="#FFFFFF" stroke-width="4" stroke-linecap="round" stroke-linejoin="round"></path>
                                <path d="M227.906905,149.271208 C221.179841,157.377919 210.41794,250.149779 220.283211,282.124819" id="Stroke-25" stroke="#FFFFFF" stroke-width="4" stroke-linecap="round" stroke-linejoin="round"></path>
                                <path d="M215.35112,242.043458 C208.175741,242.043458 205.037534,241.593216 199.656194,245.195938" id="Stroke-27" stroke="#FFFFFF" stroke-width="4" stroke-linecap="round" stroke-linejoin="round"></path>
                                <path d="M283.278978,120.797429 C299.57555,127.14069 308.141018,152.004086 310.429294,161.173089 C314.40887,177.127779 316.602968,193.863358 315.523432,210.460582 C314.443116,227.057806 310.059589,244.23034 303.690555,259.15635 C300.999885,265.46131 293.829175,273.792361 289.340574,274.918749 C276.784633,278.071229 272.864988,265.355784 274.991372,261.408345" id="Stroke-29" stroke="#FFFFFF" stroke-width="4" stroke-linecap="round" stroke-linejoin="round"></path>
                                <path d="M274.991061,246.99683 C285.752963,230.78497 287.098687,183.047531 280.820716,156.927208" id="Stroke-31" stroke="#FFFFFF" stroke-width="4" stroke-linecap="round" stroke-linejoin="round"></path>
                                <path d="M277.681731,241.593137 C282.165662,240.692652 300.551258,245.646884 305.035967,253.30179" id="Stroke-33" stroke="#FFFFFF" stroke-width="4" stroke-linecap="round" stroke-linejoin="round"></path>
                                <path d="M258.158224,104.222795 C255.798342,108.853415 249.577967,112.012148 244.497839,110.991286 C240.013908,110.090801 235.968953,107.461259 234.632568,102.435113" id="Stroke-35" stroke="#FFFFFF" stroke-width="4" stroke-linecap="round" stroke-linejoin="round"></path>
                                <path d="M275.393144,246.976272 C273.428651,250.965922 270.117656,254.271609 266.134188,256.221879 C265.615824,258.391016 267.279104,260.621124 269.347114,261.43328 C271.415902,262.245437 273.74076,261.962472 275.91073,261.487216" id="Stroke-37" stroke="#FFFFFF" stroke-width="4" stroke-linecap="round" stroke-linejoin="round"></path>
                                <path d="M279.419264,237.241261 C258.818555,241.150399 237.360131,240.425008 217.068417,235.133876" id="Stroke-39" stroke="#FFFFFF" stroke-width="4" stroke-linecap="round" stroke-linejoin="round"></path>
                                <path d="M116.0029,84.6329434 C116.0029,109.737876 95.7376483,130.090248 70.7401803,130.090248 C45.741934,130.090248 25.4759044,109.737876 25.4759044,84.6329434 C25.4759044,59.5272291 45.741934,39.1748571 70.7401803,39.1748571 C95.7376483,39.1748571 116.0029,59.5272291 116.0029,84.6329434 Z" id="Stroke-41" stroke="#FFFFFF" stroke-width="4" stroke-linecap="round" stroke-linejoin="round"></path>
                                <path d="M39.0414887,79.2421482 C30.2401882,75.436973 27.6071143,83.9704771 28.5270946,89.3507197 C29.3381094,94.0954636 35.0058729,98.8323908 40.7234493,94.4409623" id="Stroke-43" stroke="#FFFFFF" stroke-width="4" stroke-linecap="round" stroke-linejoin="round"></path>
                                <path d="M67.1084374,96.2937574 C61.7208709,96.2937574 56.2733734,92.7598221 56.2733734,87.3483127 C56.2733734,81.9368032 60.9760138,77.4117089 66.0265655,75.5270997 C73.688398,72.666965 76.8647429,81.0847817 76.8647429,86.4955094 C76.8647429,91.9070189 72.4967823,96.2937574 67.1084374,96.2937574 Z" id="Fill-45" fill="#FFFFFF"></path>
                                <path d="M76.8647429,86.4955094 C76.8647429,91.9070189 72.4967823,96.2937574 67.1084374,96.2937574 C61.7208709,96.2937574 56.2733734,92.7598221 56.2733734,87.3483127 C56.2733734,81.9368032 60.9760138,77.4117089 66.0265655,75.5270997 C73.688398,72.666965 76.8647429,81.0847817 76.8647429,86.4955094 Z" id="Stroke-47" stroke="#FFFFFF" stroke-width="4" stroke-linecap="round" stroke-linejoin="round"></path>
                                <path d="M76.4167389,90.4245013 C75.0966995,93.434717 71.5973498,94.7987332 68.600798,93.4722372 C65.6050246,92.1465229 64.246069,88.6321294 65.5661084,85.6226954 C66.8869261,82.6132615 70.3862759,81.2492453 73.3828276,82.5749596 C76.3793793,83.9006739 77.738335,87.4150674 76.4167389,90.4245013 Z" id="Fill-49" fill="#00989A"></path>
                                <path d="M50.8919557,73.1140027 C54.1033251,70.3695553 57.8462906,67.8869677 61.6538571,66.0688005 C65.4629803,64.2514151 71.6312069,61.5663747 74.7709704,64.7180728" id="Stroke-51" stroke="#FFFFFF" stroke-width="4" stroke-linecap="round" stroke-linejoin="round"></path>
                                <path d="M106.308082,95.4572129 C111.696427,95.4572129 116.063609,91.0704744 116.063609,85.6597466 C116.063609,80.2482372 113.110643,73.5000701 106.308082,75.8614987 C101.2155,77.6288571 96.967402,81.9366469 96.967402,87.3481563 C96.967402,92.7596658 100.919737,95.4572129 106.308082,95.4572129 Z" id="Fill-53" fill="#FFFFFF"></path>
                                <path d="M96.967402,87.3481563 C96.967402,92.7596658 100.919737,95.4572129 106.308082,95.4572129 C111.696427,95.4572129 116.063609,91.0704744 116.063609,85.6597466 C116.063609,80.2482372 113.110643,73.5000701 106.308082,75.8614987 C101.2155,77.6288571 96.967402,81.9366469 96.967402,87.3481563 Z" id="Stroke-55" stroke="#FFFFFF" stroke-width="4" stroke-linecap="round" stroke-linejoin="round"></path>
                                <path d="M104.915969,89.4115337 C106.236009,92.4209677 109.735359,93.7857655 112.73191,92.4592695 C115.728462,91.1327736 117.086639,87.6183801 115.7666,84.6089461 C114.446561,81.6002938 110.947211,80.235496 107.949881,81.5619919 C104.953329,82.8877062 103.595152,86.4020997 104.915969,89.4115337 Z" id="Fill-57" fill="#00989A"></path>
                                <path d="M114.456134,72.4864771 C112.63174,69.6114906 112.189651,68.814186 109.944962,66.8381213 C107.70105,64.8628383 104.046814,62.5678518 100.787188,65.3310593" id="Stroke-59" stroke="#FFFFFF" stroke-width="4" stroke-linecap="round" stroke-linejoin="round"></path>
                                <path d="M109.374994,186.599054 C111.513053,197.098461 112.910925,205.767976 113.110955,212.770186 C113.55927,228.476305 118.412127,242.261857 112.45794,250.554606 C109.841989,254.197976 109.619388,255.655011 104.142314,256.004418" id="Stroke-61" stroke="#FFFFFF" stroke-width="4" stroke-linecap="round" stroke-linejoin="round"></path>
                                <path d="M81.641869,130.356876 C97.8644995,143.86728 101.42378,156.588978 104.14247,164.583129" id="Stroke-63" stroke="#FFFFFF" stroke-width="4" stroke-linecap="round" stroke-linejoin="round"></path>
                                <path d="M102.370068,202.492774 C102.033832,213.639404 102.68996,211.379593 101.451644,221.32714 C97.8643438,250.149701 104.142314,264.56059 106.383891,284.375954" id="Stroke-65" stroke="#FFFFFF" stroke-width="4" stroke-linecap="round" stroke-linejoin="round"></path>
                                <path d="M80.1513764,129.062272 C90.8899281,135.784644 99.7519379,150.202569 101.844076,168.241976" id="Stroke-67" stroke="#FFFFFF" stroke-width="4" stroke-linecap="round" stroke-linejoin="round"></path>
                                <path d="M100.924407,235.97941 C108.099008,235.97941 109.523343,235.749598 114.904683,238.891135" id="Stroke-69" stroke="#FFFFFF" stroke-width="4" stroke-linecap="round" stroke-linejoin="round"></path>
                                <path d="M72.2419586,108.951749 C74.6018404,113.582369 82.0465202,115.053474 87.2138207,114.706412 C92.2597025,114.369512 97.3040276,112.681102 101.003407,107.951992" id="Stroke-71" stroke="#FFFFFF" stroke-width="4" stroke-linecap="round" stroke-linejoin="round"></path>
                                <path d="M21.184064,243.844976 C48.9866158,251.500663 78.9147734,249.882604 99.2064877,244.591472" id="Stroke-73" stroke="#FFFFFF" stroke-width="4" stroke-linecap="round" stroke-linejoin="round"></path>
                                <path d="M54.8162709,40.7371833 C58.6510788,36.2222507 58.85033,29.2794474 57.0578473,23.6232749 C53.9196404,13.7163747 46.1605172,4.0369407 32.7312956,1.2182345 C18.6280443,-1.74117251 8.25297044,8.01252022 5.82615271,16.7555121 C13.8973842,14.0532749 13.5611478,14.0532749 19.2787241,14.7294205 C19.2787241,14.7294205 24.8935616,15.6924394 26.7669901,20.4317116 C19.0498966,18.8128706 11.610665,24.5456469 7.19133498,31.1023046 C0.186408867,41.4930593 -2.01235961,56.0204178 4.80732512,66.5338949 C5.99738424,62.9718194 8.80246798,59.9897439 12.276133,58.5936792 C10.6525468,64.3803908 11.0860739,70.7275606 13.4817586,76.2375606 C21.1210197,64.0380189 27.8231773,58.2427089 40.0179754,50.6448652" id="Stroke-75" stroke="#FFFFFF" stroke-width="4" stroke-linecap="round" stroke-linejoin="round"></path>
                                <path d="M55.2639635,128.105038 C46.1054118,133.296116 38.598466,144.287194 35.4330177,154.359809 C30.48287,170.117518 35.0384069,187.476871 31.359264,203.582423 C29.5768995,211.388973 25.7125153,218.574094 23.6398355,226.309512 C18.941865,243.844741 18.0452345,282.124741 19.3901803,289.780429" id="Stroke-77" stroke="#FFFFFF" stroke-width="4" stroke-linecap="round" stroke-linejoin="round"></path>
                                <path d="M41.1393084,142.741518 C36.4460079,151.325049 34.2285596,155.92831 33.7397714,165.709361 C33.4253281,172.004941 34.2993872,178.843782 36.2062837,184.84858 C40.1625103,197.306854 51.8903133,207.274725 64.4485892,210.72424 C77.006865,214.174536 92.6294069,210.888391 102.349131,202.187609 C105.537929,199.332164 108.96256,192.451895 108.855929,188.162084 C102.593525,184.428822 98.2006581,193.475102 94.3277123,191.02769 C92.2916138,189.742623 93.9704611,188.06672 94.8460768,185.81707 C95.7224709,183.56742 96.725732,181.268526 94.3277123,180.345372 C91.8612,181.021518 90.1014069,182.501221 87.3266778,185.073701 C84.4118502,187.775938 82.1928453,191.32707 79.539535,191.549065 C72.3408059,192.151733 63.7154069,185.88742 60.8698502,179.219765 C58.1791803,172.914806 57.2996729,163.904482 60.1265498,157.798067" id="Stroke-79" stroke="#FFFFFF" stroke-width="4" stroke-linecap="round" stroke-linejoin="round"></path>
                                <path d="M88.2447123,209.934674 C83.0205941,204.594296 79.9578847,191.932005 80.3174709,191.548987" id="Stroke-81" stroke="#FFFFFF" stroke-width="4" stroke-linecap="round" stroke-linejoin="round"></path>
                                <path d="M94.3276345,186.599054 C97.1809744,180.084606 100.486521,172.614957 103.021526,166.385038 C103.516541,165.166412 117.721753,168.25245 119.669122,169.087275 C120.903546,169.614903 113.073595,182.729 107.818344,188.422693" id="Stroke-83" stroke="#FFFFFF" stroke-width="4" stroke-linecap="round" stroke-linejoin="round"></path>
                                <path d="M167.257633,142.065997 C180.816834,142.065997 191.80912,131.026456 191.80912,117.408962 C191.80912,103.791469 180.816834,92.7527089 167.257633,92.7527089 C153.698431,92.7527089 142.706923,103.791469 142.706923,117.408962 C142.706923,131.026456 153.698431,142.065997 167.257633,142.065997 Z" id="Fill-85" fill="#D99D29"></path>
                                <path d="M142.706923,117.408962 C142.706923,131.026456 153.698431,142.065997 167.257633,142.065997 C180.816834,142.065997 191.80912,131.026456 191.80912,117.408962 C191.80912,103.791469 180.816834,92.7527089 167.257633,92.7527089 C153.698431,92.7527089 142.706923,103.791469 142.706923,117.408962 Z" id="Stroke-87" stroke="#FFFFFF" stroke-width="4"></path>
                                <path d="M160.39405,103.904499 L175.592405,103.904499 L175.592405,107.658084 L164.452237,107.658084 L164.024937,113.949755 C164.701301,113.687895 165.685883,113.556574 166.978681,113.556574 C173.385075,113.556574 176.589439,116.177518 176.589439,121.420186 C176.589439,126.901264 173.266769,129.641803 166.622986,129.641803 C164.249873,129.641803 161.87676,129.28458 159.504425,128.56935 L159.504425,124.636763 C161.87676,125.471588 164.309026,125.888218 166.800444,125.888218 C170.182267,125.888218 171.872789,124.399135 171.872789,121.420186 C171.872789,118.679647 170.24142,117.309377 166.978681,117.309377 C164.309026,117.309377 161.818385,117.607194 159.504425,118.202827 L160.39405,103.904499 Z" id="Fill-89" fill="#FFFFFF"></path>
                                <path d="M113.713534,162.60003 C113.816273,161.916849 113.916677,161.249302 114.019416,160.595825" id="Stroke-91" stroke="#FFFFFF" stroke-width="4" stroke-linecap="round" stroke-linejoin="round"></path>
                                <path d="M114.785288,156.338296 C115.870273,151.310588 117.69311,146.920722 122.527288,142.065763 C127.009662,137.564119 130.620312,135.088566 135.37977,132.863148" id="Stroke-93" stroke="#FFFFFF" stroke-width="4" stroke-linecap="round" stroke-linejoin="round" stroke-dasharray="5.535,5.535"></path>
                                <path d="M137.350645,131.981267 C137.950734,131.723315 138.571059,131.466146 139.215512,131.205067" id="Stroke-95" stroke="#FFFFFF" stroke-width="4" stroke-linecap="round" stroke-linejoin="round"></path>
                                <polygon id="Fill-97" fill="#FFFFFF" points="136.823097 135.959113 138.679402 131.470757 134.208702 129.609598 136.893146 128.494935 141.36151 130.356876 139.50754 134.84445"></polygon>
                                <path d="M46.6362296,46.2020809 C49.5775202,40.5201132 46.9195399,32.6307062 41.1474808,29.9097089" id="Stroke-99" stroke="#FFFFFF" stroke-width="4" stroke-linecap="round" stroke-linejoin="round"></path>
                                <path d="M38.4486384,50.1943881 C36.7954759,45.1088356 33.654934,42.8458976 28.378668,43.5806685" id="Stroke-101" stroke="#FFFFFF" stroke-width="4" stroke-linecap="round" stroke-linejoin="round"></path>
                            </g>
                        </g>
                    </g>
                </g>
            </g>
        </g>
    </g>
</svg>