<?xml version="1.0" encoding="UTF-8"?>
<svg width="351px" height="261px" viewBox="0 0 351 261" version="1.1" xmlns="http://www.w3.org/2000/svg" xmlns:xlink="http://www.w3.org/1999/xlink">
    <!-- Generator: sketchtool 49.2 (51160) - http://www.bohemiancoding.com/sketch -->
    <title>2AA6A69D-B966-4F7F-B2C8-9E56B7F2F49D</title>
    <desc>Created with sketchtool.</desc>
    <defs></defs>
    <g id="Symbols" stroke="none" stroke-width="1" fill="none" fill-rule="evenodd">
        <g id="illustration-2" transform="translate(-46.000000, -33.000000)">
            <g id="Group-2">
                <g id="Ilustration-2" transform="translate(48.000000, 35.000000)">
                    <g id="Group-93" transform="translate(0.000000, 0.610749)">
                        <path d="M108.917262,106.193768 C109.131419,105.450143 109.338331,104.680103 109.558125,103.882046" id="Stroke-3" stroke="#FFFFFF" stroke-width="4" stroke-linecap="round" stroke-linejoin="round"></path>
                        <path d="M110.870284,99.5289971 C112.641514,94.3612418 115.775785,88.068043 123.551484,80.0666673 C132.005885,71.3656915 138.332395,67.2337286 147.12333,63.5236069" id="Stroke-5" stroke="#FFFFFF" stroke-width="4" stroke-linecap="round" stroke-linejoin="round" stroke-dasharray="5.681,5.681"></path>
                        <path d="M149.246391,62.6532692 C149.978231,62.3619025 150.728588,62.0705359 151.498268,61.7775684" id="Stroke-7" stroke="#FFFFFF" stroke-width="4" stroke-linecap="round" stroke-linejoin="round"></path>
                        <polygon id="Fill-9" fill="#FFFFFF" points="148.575739 67.3926995 150.85821 62.1000728 145.533249 59.8339769 148.760108 58.5492422 154.083458 60.8161386 151.803402 66.1087652"></polygon>
                        <path d="M219.440626,60.6004953 C220.243315,60.7589859 221.033928,60.9150752 221.810048,61.0711644" id="Stroke-11" stroke="#FFFFFF" stroke-width="4" stroke-linecap="round" stroke-linejoin="round"></path>
                        <path d="M226.520714,62.0677343 C235.673141,64.1505254 243.253199,67.0217674 251.442721,75.5146241 C258.863369,83.210225 262.524984,89.1504219 265.8871,97.4383615" id="Stroke-13" stroke="#FFFFFF" stroke-width="4" stroke-linecap="round" stroke-linejoin="round" stroke-dasharray="5.981,5.981"></path>
                        <path d="M266.763295,99.6657953 C267.042666,100.396613 267.321232,101.146642 267.603019,101.917483" id="Stroke-15" stroke="#FFFFFF" stroke-width="4" stroke-linecap="round" stroke-linejoin="round"></path>
                        <polygon id="Fill-17" fill="#FFFFFF" points="262.020747 98.9013582 267.299816 101.272314 269.681315 96.0229121 270.91071 99.2559609 268.5276 104.503762 263.250141 102.135207"></polygon>
                        <path d="M263.691499,170.414094 C263.276871,171.114494 262.863852,171.800487 262.449223,172.473672" id="Stroke-19" stroke="#FFFFFF" stroke-width="4" stroke-linecap="round" stroke-linejoin="round"></path>
                        <path d="M259.897928,176.393273 C254.920772,183.563774 249.074104,189.025297 238.318714,193.33336 C228.380506,197.314837 222.126455,198.704432 213.035216,198.933363" id="Stroke-21" stroke="#FFFFFF" stroke-width="4" stroke-linecap="round" stroke-linejoin="round" stroke-dasharray="5.833,5.833"></path>
                        <path d="M210.683586,198.967943 C209.90183,198.971144 209.09753,198.967943 208.268273,198.958337" id="Stroke-23" stroke="#FFFFFF" stroke-width="4" stroke-linecap="round" stroke-linejoin="round"></path>
                        <polygon id="Fill-25" fill="#FFFFFF" points="213.065085 194.812446 208.981595 198.897182 213.091653 202.954703 209.615213 202.966709 205.506765 198.908389 209.588644 194.824453"></polygon>
                        <path d="M143.85831,192.979318 C143.04596,192.780804 142.269034,192.575087 141.524312,192.362165" id="Stroke-27" stroke="#FFFFFF" stroke-width="4" stroke-linecap="round" stroke-linejoin="round"></path>
                        <path d="M136.793197,190.74444 C132.343385,188.9266 129.201062,186.658904 126.243914,183.746838 C120.31432,177.908299 119.502774,177.135858 116.945763,172.485198" id="Stroke-29" stroke="#FFFFFF" stroke-width="4" stroke-linecap="round" stroke-linejoin="round" stroke-dasharray="6.21,6.21"></path>
                        <path d="M115.762259,170.30307 C115.41687,169.661103 115.040081,168.959102 114.622232,168.185059" id="Stroke-31" stroke="#FFFFFF" stroke-width="4" stroke-linecap="round" stroke-linejoin="round"></path>
                        <polygon id="Fill-33" fill="#FFFFFF" points="120.503197 170.470366 114.956028 168.811817 113.290267 174.326971 111.643828 171.282831 113.310394 165.769278 118.855954 167.425425"></polygon>
                        <path d="M101.788465,46.8715242 C101.788465,72.5798258 80.8259613,93.4213443 54.9676179,93.4213443 C29.1100796,93.4213443 8.146771,72.5798258 8.146771,46.8715242 C8.146771,21.162422 29.1100796,0.320903513 54.9676179,0.320903513 C80.8259613,0.320903513 101.788465,21.162422 101.788465,46.8715242 Z" id="Stroke-35" stroke="#FFFFFF" stroke-width="4" stroke-linecap="round" stroke-linejoin="round"></path>
                        <path d="M22.1790162,41.3512473 C13.0748956,37.4538185 10.3512274,46.1932163 11.3028608,51.702767 C12.1417796,56.5615455 18.0037448,61.4123195 23.9188469,56.9153479" id="Stroke-37" stroke="#FFFFFF" stroke-width="4" stroke-linecap="round" stroke-linejoin="round"></path>
                        <path d="M61.3029039,48.7789349 C61.3029039,54.320504 56.7854631,58.8126729 51.2117253,58.8126729 C45.6379875,58.8126729 41.1205466,54.320504 41.1205466,48.7789349 C41.1205466,43.2373659 45.6379875,38.7459975 51.2117253,38.7459975 C56.7854631,38.7459975 61.3029039,43.2373659 61.3029039,48.7789349" id="Fill-39" fill="#FFFFFF"></path>
                        <path d="M56.0917046,47.1654522 C59.1913566,48.5230286 60.5962638,52.1218866 59.2300016,55.203649 C57.8645445,58.2862118 54.2447951,59.6830106 51.1451432,58.3246338 C48.0454912,56.9670574 46.640584,53.3681994 48.0060411,50.2856366 C49.3714981,47.2046747 52.9912476,45.8078759 56.0917046,47.1654522" id="Fill-41" fill="#00989A"></path>
                        <path d="M34.4364893,35.0757386 C37.7583501,32.2653314 40.5045613,29.8383435 44.4439371,27.9772792 C48.383313,26.1162149 55.1131807,25.6711604 58.3593617,28.8994065" id="Stroke-43" stroke="#FFFFFF" stroke-width="4" stroke-linecap="round" stroke-linejoin="round"></path>
                        <path d="M76.1021722,47.9229254 C76.1021722,53.463694 80.619613,57.9558629 86.1933508,57.9558629 C91.7670886,57.9558629 96.2845295,53.463694 96.2845295,47.9229254 C96.2845295,42.3813564 91.7670886,37.8891875 86.1933508,37.8891875 C80.619613,37.8891875 76.1021722,42.3813564 76.1021722,47.9229254" id="Fill-45" fill="#FFFFFF"></path>
                        <path d="M86.2815903,46.1274186 C83.1819383,47.4857954 81.7770311,51.0846535 83.1432933,54.1664158 C84.5087503,57.2481782 88.1284998,58.6457774 91.2281517,57.2874006 C94.3278037,55.9290238 95.7327109,52.3301658 94.3672538,49.2484034 C93.0017968,46.1674415 89.3820473,44.7698423 86.2815903,46.1274186" id="Fill-47" fill="#00989A"></path>
                        <path d="M100.454246,35.8168023 C97.7692225,32.8326958 96.0720624,30.9692302 92.8001181,28.8992464 C89.5289789,26.8292627 82.9432248,26.5939281 78.3050183,29.3611106" id="Stroke-49" stroke="#FFFFFF" stroke-width="4" stroke-linecap="round" stroke-linejoin="round"></path>
                        <path d="M105.903595,150.12361 C108.345477,162.914125 109.192446,174.5872 108.87443,185.76159 C108.349502,204.206538 106.967943,221.297112 100.294432,230.697688" id="Stroke-51" stroke="#FFFFFF" stroke-width="4" stroke-linecap="round" stroke-linejoin="round"></path>
                        <path d="M76.2759137,88.2162877 C91.5439137,99.0176647 98.9057884,121.587371 102.275955,134.349069" id="Stroke-53" stroke="#FFFFFF" stroke-width="4" stroke-linecap="round" stroke-linejoin="round"></path>
                        <path d="M22.7364705,83.1469888 C-7.85749698,108.761637 0.736992575,160.262288 2.87696009,195.211074 C5.14735452,232.281073 10.4127374,252.223678 11.2162316,256.015446" id="Stroke-55" stroke="#FFFFFF" stroke-width="4" stroke-linecap="round" stroke-linejoin="round"></path>
                        <path d="M98.0295128,165.285401 C101.150097,196.348765 102.05906,233.702926 96.3951508,251.876519" id="Stroke-57" stroke="#FFFFFF" stroke-width="4" stroke-linecap="round" stroke-linejoin="round"></path>
                        <path d="M88.5097167,115.830559 C90.0659835,117.68602 91.8299673,123.877561 93.5182712,132.737028" id="Stroke-59" stroke="#FFFFFF" stroke-width="4" stroke-linecap="round" stroke-linejoin="round"></path>
                        <path d="M100.563498,214.42206 C101.368603,214.42206 102.978812,214.688613 104.440076,216.469631" id="Stroke-61" stroke="#FFFFFF" stroke-width="4" stroke-linecap="round" stroke-linejoin="round"></path>
                        <path d="M57.2176432,69.6994586 C59.6587197,74.4413704 66.0931142,77.6752197 71.3472255,76.6306223 C75.9862371,75.708495 80.1695596,73.0157551 81.552729,67.8688117" id="Stroke-63" stroke="#FFFFFF" stroke-width="4" stroke-linecap="round" stroke-linejoin="round"></path>
                        <path d="M4.48716891,203.748757 C31.8607188,212.287239 78.7314821,209.17506 99.7213592,203.756761" id="Stroke-65" stroke="#FFFFFF" stroke-width="4" stroke-linecap="round" stroke-linejoin="round"></path>
                        <path d="M1.26675128,127.972623 C0.461646868,138.378574 3.19578144,149.243187 5.63122227,156.834728 C10.6824473,172.581333 25.6589995,185.18294 41.694264,189.543833 C57.7303336,193.904727 77.6784056,189.750351 90.08909,178.752062 C94.1613081,175.143598 98.5338302,166.444224 98.3985726,161.022723 C90.4014705,156.304025 84.7931132,167.739364 79.8465517,164.645595 C77.2468696,163.019865 79.3908626,160.902654 80.5091527,158.058628 C81.6274427,155.214602 82.9091689,152.30814 79.8465517,151.141072 C76.6969833,151.995961 74.4499369,153.867431 70.9066724,157.118891 C67.1854798,160.535244 64.3515123,165.024211 60.9628278,165.305172 C51.7709508,166.065607 40.7571225,158.147479 37.1236863,149.718659 C33.6891109,141.748501 32.5659903,130.357987 36.1736631,122.638373" id="Stroke-67" stroke="#FFFFFF" stroke-width="4" stroke-linecap="round" stroke-linejoin="round"></path>
                        <path d="M72.07979,188.544782 C65.4095,181.794522 61.4966926,165.788569 61.9572123,165.305092" id="Stroke-69" stroke="#FFFFFF" stroke-width="4" stroke-linecap="round" stroke-linejoin="round"></path>
                        <path d="M79.8462297,159.046633 C83.4901323,150.812324 87.7120998,141.370125 90.9478144,133.49362 C91.5806265,131.95354 109.718824,135.854971 112.204986,136.909173 C113.781381,137.577556 104.858408,153.06001 98.1478631,160.257726" id="Stroke-71" stroke="#FFFFFF" stroke-width="4" stroke-linecap="round" stroke-linejoin="round"></path>
                        <path d="M292.03367,169.037547 L235.732719,146.95772 C235.697294,146.943312 235.697294,146.894484 235.732719,146.880075 L290.806691,124.952336 C290.815547,124.948333 290.826819,124.948333 290.837285,124.952336 L346.825856,146.687165 C346.861281,146.700773 346.861281,146.749601 346.826661,146.76481 L292.064264,169.037547 C292.054603,169.041549 292.044137,169.041549 292.03367,169.037547" id="Fill-73" fill="#D99D29"></path>
                        <path d="M292.03367,169.037547 L235.732719,146.95772 C235.697294,146.943312 235.697294,146.894484 235.732719,146.880075 L290.806691,124.952336 C290.815547,124.948333 290.826819,124.948333 290.837285,124.952336 L346.825856,146.687165 C346.861281,146.700773 346.861281,146.749601 346.826661,146.76481 L292.064264,169.037547 C292.054603,169.041549 292.044137,169.041549 292.03367,169.037547 Z" id="Stroke-75" stroke="#FFFFFF" stroke-width="4"></path>
                        <path d="M235.039524,130.39825 L235.43,146.471442 C235.434025,146.62513 235.529028,146.762008 235.673141,146.81884 L291.49103,169.003527 C291.540141,169.022738 291.592473,168.987518 291.592473,168.935488 L291.592473,151.651204 L235.637717,129.981212 C235.346269,129.867547 235.031473,130.086072 235.039524,130.39825" id="Fill-77" fill="#D99D29"></path>
                        <path d="M235.039524,130.39825 L235.43,146.471442 C235.434025,146.62513 235.529028,146.762008 235.673141,146.81884 L291.49103,169.003527 C291.540141,169.022738 291.592473,168.987518 291.592473,168.935488 L291.592473,151.651204 L235.637717,129.981212 C235.346269,129.867547 235.031473,130.086072 235.039524,130.39825 Z" id="Stroke-79" stroke="#FFFFFF" stroke-width="4"></path>
                        <path d="M346.720226,130.868039 L346.923113,146.725107 L292.283897,168.764911 C291.953804,168.898587 291.592312,168.656849 291.592312,168.302246 L291.592312,151.651124 L346.475474,130.703945 C346.59302,130.659119 346.718616,130.743968 346.720226,130.868039" id="Fill-81" fill="#D99D29"></path>
                        <path d="M346.720226,130.868039 L346.923113,146.725107 L292.283897,168.764911 C291.953804,168.898587 291.592312,168.656849 291.592312,168.302246 L291.592312,151.651124 L346.475474,130.703945 C346.59302,130.659119 346.718616,130.743968 346.720226,130.868039 Z" id="Stroke-83" stroke="#FFFFFF" stroke-width="4"></path>
                        <path d="M292.04945,151.791684 L235.382982,130.08247 C235.260606,130.035243 235.259801,129.862344 235.381371,129.814316 L290.821666,107.693666 L346.629894,130.575551 C346.661293,130.589159 346.660487,130.633184 346.629088,130.645191 L292.04945,151.791684 Z" id="Fill-85" fill="#D99D29"></path>
                        <path d="M292.04945,151.791684 L235.382982,130.08247 C235.260606,130.035243 235.259801,129.862344 235.381371,129.814316 L290.821666,107.693666 L346.629894,130.575551 C346.661293,130.589159 346.660487,130.633184 346.629088,130.645191 L292.04945,151.791684 Z" id="Stroke-87" stroke="#FFFFFF" stroke-width="4"></path>
                        <path d="M157.192852,187.108761 C157.929522,186.478 158.853782,186.134604 159.777237,186.134604 L161.251383,186.134604 L166.559436,186.134604 L170.701699,186.134604 C171.317603,186.134604 171.821599,185.633517 171.821599,185.021967 L171.821599,176.87811 C171.821599,174.670448 172.381146,173.139973 173.481724,172.332311 C174.68616,171.442202 176.346286,171.525449 177.316436,171.683139 L177.316436,178.667934 C177.316436,181.969822 178.92101,184.855472 181.97155,187.007103 C184.201689,188.584004 186.412506,189.20516 186.505898,189.233176 C186.525221,189.233176 186.534077,189.241981 186.552594,189.241981 L187.038072,189.354045 L187.038072,207.125808 C187.019555,207.190645 187.000232,207.255482 186.991376,207.32112 C186.683826,209.268633 184.956877,210.743076 182.970685,210.743076 L176.822102,210.743076 L176.18768,210.743076 L163.582965,210.743076 C160.420515,210.743076 158.648481,209.33347 158.303091,206.559884 C158.293429,206.541474 158.293429,206.523063 158.293429,206.513458 L155.79358,191.004589 C155.550439,189.538951 156.092274,188.046097 157.192852,187.108761 Z M189.277068,209.491161 L189.277068,188.305445 C189.277068,188.267824 189.305246,188.240608 189.342281,188.240608 L196.609958,188.240608 C196.647798,188.240608 196.675172,188.267824 196.675172,188.305445 L196.675172,209.491161 C196.675172,209.528782 196.647798,209.555998 196.609958,209.555998 L189.351137,209.555998 C189.314102,209.555998 189.285924,209.528782 189.285924,209.491161 L189.277068,209.491161 Z M153.563441,191.357591 L156.072952,206.837643 C156.558429,210.734271 159.291759,212.960344 163.574109,212.960344 L176.178019,212.960344 L176.812441,212.960344 L182.961023,212.960344 C184.751576,212.960344 186.40365,212.190304 187.569441,210.956799 C187.989706,211.457885 188.633789,211.782071 189.342281,211.782071 L196.609958,211.782071 C197.878803,211.782071 198.914167,210.752682 198.914167,209.491161 L198.914167,188.305445 C198.914167,187.043924 197.878803,186.014535 196.609958,186.014535 L189.360798,186.014535 C188.511413,186.014535 187.774743,186.468395 187.373801,187.146382 L187.103286,187.081545 C186.90684,187.016708 185.051074,186.450785 183.231539,185.151642 C180.796098,183.41705 179.565093,181.237403 179.565093,178.667934 L179.565093,170.79303 C179.565093,170.311155 179.247882,169.88371 178.780921,169.735626 C178.622316,169.680394 174.881801,168.548547 172.166989,170.532882 C170.450506,171.784798 169.582603,173.918818 169.582603,176.87811 L169.582603,183.918136 L166.559436,183.918136 L161.251383,183.918136 L159.777237,183.918136 C158.321608,183.918136 156.884497,184.447239 155.737223,185.421396 C154.048919,186.849413 153.218051,189.130717 153.563441,191.357591 Z" id="Fill-89" fill="#FFFFFF"></path>
                        <path d="M157.192852,187.108761 C157.929522,186.478 158.853782,186.134604 159.777237,186.134604 L161.251383,186.134604 L166.559436,186.134604 L170.701699,186.134604 C171.317603,186.134604 171.821599,185.633517 171.821599,185.021967 L171.821599,176.87811 C171.821599,174.670448 172.381146,173.139973 173.481724,172.332311 C174.68616,171.442202 176.346286,171.525449 177.316436,171.683139 L177.316436,178.667934 C177.316436,181.969822 178.92101,184.855472 181.97155,187.007103 C184.201689,188.584004 186.412506,189.20516 186.505898,189.233176 C186.525221,189.233176 186.534077,189.241981 186.552594,189.241981 L187.038072,189.354045 L187.038072,207.125808 C187.019555,207.190645 187.000232,207.255482 186.991376,207.32112 C186.683826,209.268633 184.956877,210.743076 182.970685,210.743076 L176.822102,210.743076 L176.18768,210.743076 L163.582965,210.743076 C160.420515,210.743076 158.648481,209.33347 158.303091,206.559884 C158.293429,206.541474 158.293429,206.523063 158.293429,206.513458 L155.79358,191.004589 C155.550439,189.538951 156.092274,188.046097 157.192852,187.108761 Z M189.277068,209.491161 L189.277068,188.305445 C189.277068,188.267824 189.305246,188.240608 189.342281,188.240608 L196.609958,188.240608 C196.647798,188.240608 196.675172,188.267824 196.675172,188.305445 L196.675172,209.491161 C196.675172,209.528782 196.647798,209.555998 196.609958,209.555998 L189.351137,209.555998 C189.314102,209.555998 189.285924,209.528782 189.285924,209.491161 L189.277068,209.491161 Z M153.563441,191.357591 L156.072952,206.837643 C156.558429,210.734271 159.291759,212.960344 163.574109,212.960344 L176.178019,212.960344 L176.812441,212.960344 L182.961023,212.960344 C184.751576,212.960344 186.40365,212.190304 187.569441,210.956799 C187.989706,211.457885 188.633789,211.782071 189.342281,211.782071 L196.609958,211.782071 C197.878803,211.782071 198.914167,210.752682 198.914167,209.491161 L198.914167,188.305445 C198.914167,187.043924 197.878803,186.014535 196.609958,186.014535 L189.360798,186.014535 C188.511413,186.014535 187.774743,186.468395 187.373801,187.146382 L187.103286,187.081545 C186.90684,187.016708 185.051074,186.450785 183.231539,185.151642 C180.796098,183.41705 179.565093,181.237403 179.565093,178.667934 L179.565093,170.79303 C179.565093,170.311155 179.247882,169.88371 178.780921,169.735626 C178.622316,169.680394 174.881801,168.548547 172.166989,170.532882 C170.450506,171.784798 169.582603,173.918818 169.582603,176.87811 L169.582603,183.918136 L166.559436,183.918136 L161.251383,183.918136 L159.777237,183.918136 C158.321608,183.918136 156.884497,184.447239 155.737223,185.421396 C154.048919,186.849413 153.218051,189.130717 153.563441,191.357591 Z" id="Stroke-91" stroke="#FFFFFF" stroke-width="2"></path>
                    </g>
                </g>
            </g>
        </g>
    </g>
</svg>