<?xml version="1.0" encoding="UTF-8"?>
<svg width="428px" height="314px" viewBox="0 0 428 314" version="1.1" xmlns="http://www.w3.org/2000/svg" xmlns:xlink="http://www.w3.org/1999/xlink">
    <!-- Generator: sketchtool 49.2 (51160) - http://www.bohemiancoding.com/sketch -->
    <title>614AB227-5E4E-41B3-91B2-21C64B5BA779</title>
    <desc>Created with sketchtool.</desc>
    <defs></defs>
    <g id="Symbols" stroke="none" stroke-width="1" fill="none" fill-rule="evenodd">
        <g id="Ilustration-3" transform="translate(2.000000, 2.000000)">
            <g id="Page-1">
                <path d="M150.613968,80.6254597 C153.858759,105.541272 136.290393,128.369346 111.375493,131.614144 C86.4588574,134.858074 63.6308237,117.290544 60.3860319,92.3747319 C57.1412401,67.4589197 74.7096061,44.6299781 99.6253741,41.3860479 C124.541142,38.1412504 147.370043,55.7087802 150.613968,80.6254597 Z" id="Stroke-1" stroke="#FFFFFF" stroke-width="4" stroke-linecap="round" stroke-linejoin="round"></path>
                <path d="M73.1892901,84.460691 C63.4913649,81.9360229 61.8978944,90.381233 63.5867007,95.3840162 C65.0748479,99.7957428 71.6285062,103.597293 77,98.7092294" id="Stroke-3" stroke="#FFFFFF" stroke-width="4" stroke-linecap="round" stroke-linejoin="round"></path>
                <path d="M110.919013,87.2051814 C111.599423,92.4295498 107.917452,97.216796 102.697601,97.8969512 C97.4777509,98.5779503 91.755392,95.8531102 91.0758249,90.6287418 C90.3962579,85.4035296 94.3842877,80.4399156 99.0400805,77.9817368 C106.104711,74.2526973 110.239446,81.9808131 110.919013,87.2051814" id="Fill-5" fill="#FFFFFF"></path>
                <path d="M110.919013,87.2051814 C111.599423,92.4295498 107.917452,97.216796 102.697601,97.8969512 C97.4777509,98.5779503 91.755392,95.8531102 91.0758249,90.6287418 C90.3962579,85.4035296 94.3842877,80.4399156 99.0400805,77.9817368 C106.104711,74.2526973 110.239446,81.9808131 110.919013,87.2051814 Z" id="Stroke-7" stroke="#FFFFFF" stroke-width="4" stroke-linecap="round" stroke-linejoin="round"></path>
                <path d="M107.689762,83.2441342 C110.868487,84.1774397 112.688767,87.5116712 111.755491,90.6896244 C110.822216,93.8684505 107.488963,95.6887891 104.310238,94.7554836 C101.131513,93.8221781 99.3112329,90.4888196 100.244509,87.3099935 C101.177784,84.1320403 104.511037,82.3117018 107.689762,83.2441342" id="Fill-9" fill="#00989A"></path>
                <path d="M84,78 C86.7561953,74.7150131 90.0592615,71.6296111 93.5076559,69.2255196 C96.9568903,66.8223353 102.575127,63.1971467 106,66.0421395" id="Stroke-11" stroke="#FFFFFF" stroke-width="4" stroke-linecap="round" stroke-linejoin="round"></path>
                <path d="M132.081219,86.1910754 C132.74409,91.4418694 136.810135,93.5596585 141.901737,92.8752148 C146.994162,92.1907712 150.584026,87.3793103 149.921155,82.1285163 C149.258285,76.8777223 145.640459,70.703311 139.500271,73.8583673 C134.904587,76.2204189 131.417526,80.9402814 132.081219,86.1910754" id="Fill-13" fill="#FFFFFF"></path>
                <path d="M132.081219,86.1910754 C132.74409,91.4418694 136.810135,93.5596585 141.901737,92.8752148 C146.994162,92.1907712 150.584026,87.3793103 149.921155,82.1285163 C149.258285,76.8777223 145.640459,70.703311 139.500271,73.8583673 C134.904587,76.2204189 131.417526,80.9402814 132.081219,86.1910754 Z" id="Stroke-15" stroke="#FFFFFF" stroke-width="4" stroke-linecap="round" stroke-linejoin="round"></path>
                <path d="M141.891859,77.8686855 C139.058435,79.5852355 138.152089,83.2732859 139.868733,86.1083001 C141.584505,88.9415681 145.273631,89.8478646 148.107055,88.1313145 C150.941352,86.4147645 151.847699,82.7258409 150.131927,79.8916999 C148.415283,77.0584319 144.726156,76.1521354 141.891859,77.8686855" id="Fill-17" fill="#00989A"></path>
                <path d="M149,69 C146.742801,66.4080187 146.181184,65.6820578 143.612771,64.0282414 C141.043463,62.3744251 136.981578,60.5883034 134,63.7232519" id="Stroke-19" stroke="#FFFFFF" stroke-width="4" stroke-linecap="round" stroke-linejoin="round"></path>
                <path d="M145.220343,171 C147.54907,189.876059 146.315,214.549404 145.080929,224.559488 C141.503501,253.560741 147.764215,268.061803 150,288" id="Stroke-21" stroke="#FFFFFF" stroke-width="4" stroke-linecap="round" stroke-linejoin="round"></path>
                <path d="M123,130 C133.715807,136.922067 142.91161,153.425445 145,172" id="Stroke-23" stroke="#FFFFFF" stroke-width="4" stroke-linecap="round" stroke-linejoin="round"></path>
                <path d="M108,111.719013 C110.919832,116.290711 119.207141,119.887975 124.260398,118.8063 C129.194322,117.75051 133.955683,111.514697 137,106" id="Stroke-25" stroke="#FFFFFF" stroke-width="4" stroke-linecap="round" stroke-linejoin="round"></path>
                <path d="M64,247 C91.794105,254.313737 121.713875,252.768033 142,247.712829" id="Stroke-27" stroke="#FFFFFF" stroke-width="4" stroke-linecap="round" stroke-linejoin="round"></path>
                <path d="M90.704633,42.7339294 C94.956557,38.5104566 95.7408415,31.5335353 94.406596,25.684976 C92.0703549,15.4386085 85.0493906,5.03279851 71.7270453,1.05812601 C57.7358286,-3.11628757 46.4402075,5.83176287 43.2549805,14.4337706 C51.6320488,12.394309 51.2928042,12.3662751 57.0083763,13.5296794 C57.0083763,13.5296794 62.5980431,14.9751741 64.0914188,19.9073774 C56.4348081,17.6243717 48.4415758,22.770333 43.4281002,29.0008533 C35.4820823,38.8757725 32.0415475,53.3237114 38.0439037,64.4916913 C39.5451485,61.0032307 42.6280775,58.2366414 46.2513497,57.1240485 C44.1266992,62.8166695 44.0305216,69.246931 45.9864241,75 C54.7254699,63.3563209 61.9790091,58.0850834 74.9306335,51.4629654" id="Stroke-29" stroke="#FFFFFF" stroke-width="4" stroke-linecap="round" stroke-linejoin="round"></path>
                <path d="M75.847352,182 C76.3793087,195.058313 78.6319371,190.454198 74.860444,206.597267 C73.0309025,214.423394 69.0682237,221.625793 66.9421673,229.378949 C62.1235781,246.955375 61.2030541,285.325896 62.5838401,293" id="Stroke-31" stroke="#FFFFFF" stroke-width="4" stroke-linecap="round" stroke-linejoin="round"></path>
                <path d="M159.612623,107 C161.421032,114.047327 156.647218,123.655185 150.500727,127.590254 C149.245057,128.394818 147.345836,129.190695 144.948888,129.810192 C139.580422,131.1995 131.716335,131.707783 123,129.462648" id="Stroke-33" stroke="#FFFFFF" stroke-width="4" stroke-linecap="round" stroke-linejoin="round"></path>
                <path d="M143,156 C149.281409,155.250567 154.855899,153.489222 160.478212,150.546282 C172.141078,144.440346 182.595311,133.523189 181.973605,110" id="Stroke-35" stroke="#FFFFFF" stroke-width="4" stroke-linecap="round" stroke-linejoin="round"></path>
                <path d="M31,155.179577 C33.5309964,161.921605 41.7681921,166.243792 49.0014633,165.989343 C54.131768,165.808822 58.8833311,162.916189 61.5518159,159.400329 C65.0616602,154.778993 70.9105361,136.141495 83,128" id="Stroke-37" stroke="#FFFFFF" stroke-width="4" stroke-linecap="round" stroke-linejoin="round"></path>
                <path d="M83,173.920648 C74.7100711,183.647294 68.7808156,187.738358 62.8681907,189.632092 C49.564566,193.892373 26.997683,188.342229 15,171" id="Stroke-39" stroke="#FFFFFF" stroke-width="4" stroke-linecap="round" stroke-linejoin="round"></path>
                <path d="M181,111.593422 C174.792107,113.803634 160.420183,106.296097 160,106" id="Stroke-41" stroke="#FFFFFF" stroke-width="4" stroke-linecap="round" stroke-linejoin="round"></path>
                <path d="M82.2670948,46 C85.7920084,40.8095312 83.7264198,33.0616207 78,30" id="Stroke-43" stroke="#FFFFFF" stroke-width="4" stroke-linecap="round" stroke-linejoin="round"></path>
                <path d="M75,52 C73.7082689,46.4141305 70.6062949,43.7118603 65,44.0243045" id="Stroke-45" stroke="#FFFFFF" stroke-width="4" stroke-linecap="round" stroke-linejoin="round"></path>
                <path d="M160.046964,108.657412 C157.523298,96.8024963 160.10493,89.6650911 158,76.8744709 C160.13175,74.3766006 164.263745,76.4181378 166.101341,79.1499342 C167.938937,81.8817307 167.778018,82.6180663 170.749836,83.9365591 C174.510678,85.6023967 177.871818,82.3699629 180.64811,79.284619 C183.424403,76.198389 186.264717,72.4865838 190.338747,72.0426558 C192.131355,71.8468313 193.939535,72.3456965 195.575549,73.1201337 C200.105517,75.2626844 203.568746,79.6461412 204.639811,84.6365653 C205.710877,89.6261034 204.356039,95.107418 201.071034,98.9530218 C197.718546,102.878373 192.793201,104.89953 188.320333,107.391198 C183.847465,109.882866 182.902713,109.900588 181.833377,115" id="Stroke-47" stroke="#FFFFFF" stroke-width="4" stroke-linecap="round" stroke-linejoin="round"></path>
                <path d="M108,111 C109.351221,110.636615 110.752425,110.581417 112.142615,110.49218 C120.611679,109.950322 129.009582,108.094756 137,105" id="Stroke-49" stroke="#FFFFFF" stroke-width="4" stroke-linecap="round" stroke-linejoin="round"></path>
                <path d="M30.6817633,155 C32.3856565,147.270064 26.5920728,142.670289 28.690707,137.229872 C29.0082349,136.406509 29.4689107,132.214528 28.8026226,131.633941 C28.4903,131.362654 26.982476,130.032141 26.5695162,130.007086 C23.4376149,129.823924 21.0422743,133.231421 19.0139128,135.614249 C16.9855512,137.997077 16.2706796,140.063693 16,143.175711" id="Stroke-51" stroke="#FFFFFF" stroke-width="4" stroke-linecap="round" stroke-linejoin="round"></path>
                <path d="M18.5469266,150.836331 L13.0088873,161.440518 C12.7033693,162.027287 12.3869099,162.627604 11.8979128,163.070433 C11.1690462,163.730866 10.1481281,163.960325 9.16845058,163.99504 C6.43646341,164.091565 3.69269317,162.773238 2.04979762,160.574334 C-0.448211601,157.229833 -0.200767292,152.615267 0.402693831,148.476552 C1.09957781,143.701959 3.76339155,136.991788 9.83924349,138.127225 C14.1324864,138.929058 20.8008581,146.519807 18.5469266,150.836331 Z" id="Stroke-53" stroke="#FFFFFF" stroke-width="4" stroke-linecap="round" stroke-linejoin="round"></path>
                <path d="M30,157 C27.1723374,163.448971 21.7344555,168.885931 15,172" id="Stroke-55" stroke="#FFFFFF" stroke-width="4" stroke-linecap="round" stroke-linejoin="round"></path>
                <path d="M16,173 C12.034625,170.642499 8.25167867,168.310534 5,165" id="Stroke-57" stroke="#FFFFFF" stroke-width="4" stroke-linecap="round" stroke-linejoin="round"></path>
                <path d="M319,102.5 C319,127.629442 339.370558,148 364.5,148 C389.629442,148 410,127.629442 410,102.5 C410,77.3705578 389.629442,57 364.5,57 C339.370558,57 319,77.3705578 319,102.5 Z" id="Stroke-59" stroke="#FFFFFF" stroke-width="4" stroke-linecap="round" stroke-linejoin="round"></path>
                <path d="M395.76673,96.9003009 C405.016671,93.2837902 407.784669,101.393966 406.817865,106.506992 C405.964429,111.016306 400.008516,115.517383 394,111.34493" id="Stroke-61" stroke="#FFFFFF" stroke-width="4" stroke-linecap="round" stroke-linejoin="round"></path>
                <path d="M357,103.5 C357,108.746595 361.253593,113 366.50042,113 C371.747247,113 376,108.746595 376,103.5 C376,98.2534053 371.747247,94 366.50042,94 C361.253593,94 357,98.2534053 357,103.5" id="Fill-63" fill="#FFFFFF"></path>
                <path d="M357,103.5 C357,108.746595 361.253593,113 366.50042,113 C371.747247,113 376,108.746595 376,103.5 C376,98.2534053 371.747247,94 366.50042,94 C361.253593,94 357,98.2534053 357,103.5 Z" id="Stroke-65" stroke="#FFFFFF" stroke-width="4" stroke-linecap="round" stroke-linejoin="round"></path>
                <path d="M360.581261,100.510342 C357.549216,101.846193 356.175062,105.387509 357.510803,108.419804 C358.847417,111.450353 362.386694,112.824621 365.418739,111.489643 C368.450784,110.153792 369.824938,106.612476 368.489197,103.581054 C367.152583,100.549631 363.612433,99.1753635 360.581261,100.510342" id="Fill-67" fill="#00989A"></path>
                <path d="M383,91 C379.805865,88.0418039 377.166113,85.4871256 373.378978,83.5283832 C369.590985,81.5687068 363.122048,81.1007383 360,84.4988808" id="Stroke-69" stroke="#FFFFFF" stroke-width="4" stroke-linecap="round" stroke-linejoin="round"></path>
                <path d="M342,102.5 C342,107.746595 337.746407,112 332.49958,112 C327.252753,112 323,107.746595 323,102.5 C323,97.2534053 327.252753,93 332.49958,93 C337.746407,93 342,97.2534053 342,102.5" id="Fill-71" fill="#FFFFFF"></path>
                <path d="M342,102.5 C342,107.746595 337.746407,112 332.49958,112 C327.252753,112 323,107.746595 323,102.5 C323,97.2534053 327.252753,93 332.49958,93 C337.746407,93 342,97.2534053 342,102.5 Z" id="Stroke-73" stroke="#FFFFFF" stroke-width="4" stroke-linecap="round" stroke-linejoin="round"></path>
                <path d="M331.418739,99.5107143 C334.450784,100.846565 335.824938,104.38788 334.489197,107.419302 C333.152583,110.450723 329.613306,111.824991 326.581261,110.48914 C323.549216,109.154162 322.175062,105.612847 323.510803,102.581425 C324.847417,99.550004 328.386694,98.1748633 331.418739,99.5107143" id="Fill-75" fill="#00989A"></path>
                <path d="M319,92 C321.545762,88.84162 323.154637,86.8678674 326.256438,84.6771053 C329.35824,82.4863433 335.602466,82.2355142 340,85.1656115" id="Stroke-77" stroke="#FFFFFF" stroke-width="4" stroke-linecap="round" stroke-linejoin="round"></path>
                <path d="M319.225446,175 C309.428638,221.567264 319.537915,302.736854 321,310" id="Stroke-79" stroke="#FFFFFF" stroke-width="4" stroke-linecap="round" stroke-linejoin="round"></path>
                <path d="M389,142 C409.905254,157.326824 413.598208,273.570909 403.903251,306" id="Stroke-81" stroke="#FFFFFF" stroke-width="4" stroke-linecap="round" stroke-linejoin="round"></path>
                <path d="M361,124.839308 C358.693419,129.602963 352.611437,132.851841 347.645624,131.802464 C343.26194,130.876124 339.306837,128.169319 338,123" id="Stroke-83" stroke="#FFFFFF" stroke-width="4" stroke-linecap="round" stroke-linejoin="round"></path>
                <path d="M319,259 C340.998052,263.610716 387.517553,264.783841 408,259.582729" id="Stroke-85" stroke="#FFFFFF" stroke-width="4" stroke-linecap="round" stroke-linejoin="round"></path>
                <path d="M283.728377,121 C281.299571,127.814935 285.249127,137.72255 291.071932,142.1382 C296.575642,146.313232 315.913787,151.472298 336,140.06319" id="Stroke-87" stroke="#FFFFFF" stroke-width="4" stroke-linecap="round" stroke-linejoin="round"></path>
                <path d="M325,173.848009 C319.739696,174.368808 306.280174,173.537433 296.599254,171.565835 C290.368059,170.296711 283.908573,167.738566 278.524065,164.385379 C267.357945,157.429853 257.810851,145.888352 260.440128,123" id="Stroke-89" stroke="#FFFFFF" stroke-width="4" stroke-linecap="round" stroke-linejoin="round"></path>
                <path d="M261,123.350474 C267.178323,125.876733 282.544503,120.235261 283,120" id="Stroke-91" stroke="#FFFFFF" stroke-width="4" stroke-linecap="round" stroke-linejoin="round"></path>
                <path d="M282.269666,122.573145 C285.793973,110.90324 283.814318,103.513846 287,90.8668373 C285.079387,88.171105 280.775374,89.8531491 278.707155,92.4302013 C276.639805,95.0072535 276.738787,95.7612733 273.654693,96.8186856 C269.754425,98.1562899 266.666858,94.6146278 264.15148,91.2719556 C261.635234,87.9292833 259.109437,83.9521637 255.073719,83.1437117 C253.298107,82.7885639 251.447825,83.1285421 249.746016,83.7594201 C245.03652,85.5066044 241.203977,89.5970501 239.710553,94.5084404 C238.217998,99.4207231 239.110579,105.039732 242.070511,109.189964 C245.091221,113.425859 249.84413,115.892263 254.106467,118.789662 C258.368803,121.687061 259.311744,121.788786 259.949922,127" id="Stroke-93" stroke="#FFFFFF" stroke-width="4" stroke-linecap="round" stroke-linejoin="round"></path>
                <path d="M335,122 C339.615917,122.81516 346.259411,123.75993 349.423227,123.901768 C355.480861,124.174031 359.519572,123.901768 365,122.81516" id="Stroke-95" stroke="#FFFFFF" stroke-width="4" stroke-linecap="round" stroke-linejoin="round"></path>
                <path d="M389,142 C406.047778,153.754133 414.753723,183.428431 417.274047,192.632519 C421.66067,208.649533 423.614116,222.896095 423.92646,236.484411 C424.342343,254.566954 423.095555,270.842378 417.573449,280.390429 C415.148036,284.585216 412.972844,288.597545 407.893369,289" id="Stroke-97" stroke="#FFFFFF" stroke-width="4" stroke-linecap="round" stroke-linejoin="round"></path>
                <path d="M409,264.025754 C415.597732,264.025754 416.051273,263.519124 421,267" id="Stroke-99" stroke="#FFFFFF" stroke-width="4" stroke-linecap="round" stroke-linejoin="round"></path>
                <path d="M123.649882,118.933239 C127.270704,118.308418 130.229974,115.534869 132.724299,112.640534 C134.344429,110.760623 135.94262,108.563762 136,106 C135.967935,107.40403 115.749216,109.024204 113.777213,110.382825 C107.485708,114.718425 119.607995,119.631621 123.649882,118.933239" id="Fill-101" fill="#FFFFFF"></path>
                <path d="M339.972091,127.75882 C343.009714,131.044577 347.214264,133.269269 351.494433,132.9737 C355.775461,132.676267 359.962826,129.490276 361,124.975623 C355.965367,124.715485 350.932452,124.456279 345.897818,124.198006 C343.302735,124.063741 340.326123,123.638569 338,124.698702 C338.408167,125.921071 339.111933,126.82829 339.972091,127.75882" id="Fill-103" fill="#FFFFFF"></path>
            </g>
        </g>
    </g>
</svg>