<?xml version="1.0" encoding="UTF-8"?>
<svg width="16px" height="21px" viewBox="0 0 16 21" version="1.1" xmlns="http://www.w3.org/2000/svg" xmlns:xlink="http://www.w3.org/1999/xlink">
    <!-- Generator: sketchtool 52.5 (67469) - http://www.bohemiancoding.com/sketch -->
    <title>A1F457C5-B726-477D-9B25-0119D4E3E9B6</title>
    <desc>Created with sketchtool.</desc>
    <g id="Web" stroke="none" stroke-width="1" fill="none" fill-rule="evenodd">
        <g id="Главная-страница-ui-open" transform="translate(-976.000000, -4356.000000)" fill="#FE9802" fill-rule="nonzero">
            <g id="Contacts" transform="translate(0.000000, 4164.000000)">
                <g id="map-v-2" transform="translate(816.000000, 12.000000)">
                    <g id="Moscow" transform="translate(160.000000, 177.000000)">
                        <g id="placeholder-filled-point" transform="translate(0.000000, 3.000000)">
                            <path d="M7.87467163,0 C3.53278802,0 0,3.46833552 0,7.73143524 C0,8.84341739 0.2318269,9.90510889 0.688694456,10.887281 C2.65758128,15.1170685 6.43248502,19.5828353 7.54280234,20.8506325 C7.62598857,20.945411 7.74726535,21 7.87489054,21 C8.00251574,21 8.12379251,20.945411 8.20697875,20.8506325 C9.31685824,19.5830502 13.091762,15.1174984 15.0613055,10.887281 C15.518392,9.90510889 15.75,8.84341739 15.75,7.73143524 C15.7495622,3.46833552 12.2167742,0 7.87467163,0 Z M7.87467163,11.7471651 C5.61923013,11.7471651 3.78409802,9.94551335 3.78409802,7.73122032 C3.78409802,5.51671238 5.61923013,3.71506059 7.87467163,3.71506059 C10.1301131,3.71506059 11.9652452,5.51671238 11.9652452,7.73122032 C11.9654642,9.94551335 10.130332,11.7471651 7.87467163,11.7471651 Z" id="Map-select"></path>
                        </g>
                    </g>
                </g>
            </g>
        </g>
    </g>
</svg>