<?xml version="1.0" encoding="UTF-8"?>
<svg width="12px" height="16px" viewBox="0 0 12 16" version="1.1" xmlns="http://www.w3.org/2000/svg" xmlns:xlink="http://www.w3.org/1999/xlink">
    <!-- Generator: sketchtool 52.5 (67469) - http://www.bohemiancoding.com/sketch -->
    <title>A62A0F39-6B52-4BF6-8611-068B3F845AFA</title>
    <desc>Created with sketchtool.</desc>
    <g id="web-1024" stroke="none" stroke-width="1" fill="none" fill-rule="evenodd" opacity="0.5">
        <g id="Главная-страница-ui-open-1024" transform="translate(-977.000000, -4243.000000)" fill="#FFFFFF" fill-rule="nonzero">
            <g id="Contacts" transform="translate(208.000000, 4004.000000)">
                <g id="map-v-2" transform="translate(498.000000, 12.000000)">
                    <g id="Almata" transform="translate(271.000000, 225.000000)">
                        <g id="placeholder-filled-point" transform="translate(0.000000, 2.000000)">
                            <path d="M5.87297959,0 C2.63477551,0 0,2.63477551 0,5.87330612 C0,6.71804082 0.172897959,7.52457143 0.513632653,8.27069388 C1.98204082,11.4839184 4.79738776,14.8764082 5.62546939,15.8395102 C5.6875102,15.9115102 5.77795918,15.9529796 5.87314286,15.9529796 C5.96832653,15.9529796 6.05877551,15.9115102 6.12081633,15.8395102 C6.94857143,14.8765714 9.76391837,11.4842449 11.2328163,8.27069388 C11.5737143,7.52457143 11.746449,6.71804082 11.746449,5.87330612 C11.7461224,2.63477551 9.11134694,0 5.87297959,0 Z M5.87297959,8.92391837 C4.19085714,8.92391837 2.82220408,7.55526531 2.82220408,5.87314286 C2.82220408,4.19085714 4.19085714,2.82220408 5.87297959,2.82220408 C7.55510204,2.82220408 8.9237551,4.19085714 8.9237551,5.87314286 C8.92391837,7.55526531 7.55526531,8.92391837 5.87297959,8.92391837 Z" id="Map-white"></path>
                        </g>
                    </g>
                </g>
            </g>
        </g>
    </g>
</svg>