<?xml version="1.0" encoding="UTF-8"?>
<svg width="200px" height="200px" viewBox="0 0 200 200" version="1.1" xmlns="http://www.w3.org/2000/svg" xmlns:xlink="http://www.w3.org/1999/xlink">
    <!-- Generator: sketchtool 52.5 (67469) - http://www.bohemiancoding.com/sketch -->
    <title>278A651C-7915-474B-BC06-A56588DB6D2B</title>
    <desc>Created with sketchtool.</desc>
    <g id="Web" stroke="none" stroke-width="1" fill="none" fill-rule="evenodd" opacity="0.08">
        <g id="Главная-страница-ui-open" transform="translate(-1024.000000, -1986.000000)" fill="#FFFFFF">
            <g id="Group-3-Copy" transform="translate(0.000000, 1724.000000)">
                <g id="Group-5" transform="translate(134.000000, 183.000000)">
                    <g id="Group-12">
                        <g id="Trade-icon" transform="translate(890.000000, 79.000000)">
                            <path d="M195.451462,191.293177 L4.15867446,191.293177 C1.86315789,191.293177 0,193.155945 0,195.451462 C0,197.746979 1.86315789,199.610136 4.15867446,199.610136 L195.451852,199.610136 C197.747368,199.610136 199.610526,197.746979 199.610526,195.451462 C199.610136,193.155945 197.746979,191.293177 195.451462,191.293177 Z" id="Path"></path>
                            <path d="M37.4269006,141.390643 L12.4756335,141.390643 C10.180117,141.390643 8.31695906,143.253801 8.31695906,145.549318 L8.31695906,195.451852 C8.31695906,197.746979 10.180117,199.610136 12.4756335,199.610136 L37.4269006,199.610136 C39.7224172,199.610136 41.585575,197.746979 41.585575,195.451462 L41.585575,145.548928 C41.585575,143.253411 39.7224172,141.390643 37.4269006,141.390643 Z M33.2682261,191.293177 L16.634308,191.293177 L16.634308,149.707602 L33.268616,149.707602 L33.268616,191.293177 L33.2682261,191.293177 Z" id="Shape" fill-rule="nonzero"></path>
                            <path d="M87.3294347,99.8050682 L62.3781676,99.8050682 C60.0826511,99.8050682 58.2194932,101.668226 58.2194932,103.963743 L58.2194932,195.451852 C58.2194932,197.747368 60.0826511,199.610526 62.3781676,199.610526 L87.3294347,199.610526 C89.6249513,199.610526 91.4881092,197.747368 91.4881092,195.451852 L91.4881092,103.963743 C91.4881092,101.668226 89.6249513,99.8050682 87.3294347,99.8050682 Z M83.1707602,191.293177 L66.5364522,191.293177 L66.5364522,108.122027 L83.1707602,108.122027 L83.1707602,191.293177 Z" id="Shape" fill-rule="nonzero"></path>
                            <path d="M137.231969,116.439376 L112.280702,116.439376 C109.985185,116.439376 108.122027,118.302534 108.122027,120.598051 L108.122027,195.451852 C108.122027,197.747368 109.985185,199.610526 112.280702,199.610526 L137.231969,199.610526 C139.527485,199.610526 141.390643,197.747368 141.390643,195.451852 L141.390643,120.598051 C141.390643,118.302144 139.527485,116.439376 137.231969,116.439376 Z M133.073294,191.293177 L116.438986,191.293177 L116.438986,124.756335 L133.073294,124.756335 L133.073294,191.293177 Z" id="Shape" fill-rule="nonzero"></path>
                            <path d="M187.134503,66.5368421 L162.183236,66.5368421 C159.887719,66.5368421 158.024561,68.4 158.024561,70.6955166 L158.024561,195.451852 C158.024561,197.747368 159.887719,199.610526 162.183236,199.610526 L187.134503,199.610526 C189.430019,199.610526 191.293177,197.747368 191.293177,195.451852 L191.293177,70.6955166 C191.293177,68.3996101 189.430019,66.5368421 187.134503,66.5368421 Z M182.975828,191.293177 L166.34152,191.293177 L166.34152,74.8538012 L182.975828,74.8538012 L182.975828,191.293177 Z" id="Shape" fill-rule="nonzero"></path>
                            <path d="M24.9512671,74.8538012 C15.7773879,74.8538012 8.31695906,82.31423 8.31695906,91.4881092 C8.31695906,100.661988 15.7773879,108.122417 24.9512671,108.122417 C34.1251462,108.122417 41.585575,100.661988 41.585575,91.4881092 C41.585575,82.31423 34.1251462,74.8538012 24.9512671,74.8538012 Z M24.9512671,99.8050682 C20.3602339,99.8050682 16.634308,96.0705653 16.634308,91.4881092 C16.634308,86.9052632 20.3602339,83.1711501 24.9512671,83.1711501 C29.5423002,83.1711501 33.2682261,86.905653 33.2682261,91.4881092 C33.2682261,96.0705653 29.5423002,99.8050682 24.9512671,99.8050682 Z" id="Shape" fill-rule="nonzero"></path>
                            <path d="M74.8538012,33.2682261 C65.679922,33.2682261 58.2194932,40.728655 58.2194932,49.9025341 C58.2194932,59.0764133 65.679922,66.5368421 74.8538012,66.5368421 C84.0276803,66.5368421 91.4881092,59.0764133 91.4881092,49.9025341 C91.4881092,40.728655 84.0276803,33.2682261 74.8538012,33.2682261 Z M74.8538012,58.2194932 C70.262768,58.2194932 66.5368421,54.4849903 66.5368421,49.9025341 C66.5368421,45.3196881 70.262768,41.585575 74.8538012,41.585575 C79.4448343,41.585575 83.1707602,45.320078 83.1707602,49.9025341 C83.1707602,54.4853801 79.4448343,58.2194932 74.8538012,58.2194932 Z" id="Shape" fill-rule="nonzero"></path>
                            <path d="M124.756335,49.9025341 C115.582456,49.9025341 108.122027,57.362963 108.122027,66.5368421 C108.122027,75.7107212 115.582456,83.1711501 124.756335,83.1711501 C133.930214,83.1711501 141.390643,75.7107212 141.390643,66.5368421 C141.390643,57.362963 133.930214,49.9025341 124.756335,49.9025341 Z M124.756335,74.8538012 C120.165302,74.8538012 116.439376,71.1192982 116.439376,66.5368421 C116.439376,61.9539961 120.165302,58.219883 124.756335,58.219883 C129.347368,58.219883 133.073294,61.954386 133.073294,66.5368421 C133.073294,71.1192982 129.347368,74.8538012 124.756335,74.8538012 Z" id="Shape" fill-rule="nonzero"></path>
                            <path d="M174.658869,0 C165.48499,0 158.024561,7.46042885 158.024561,16.634308 C158.024561,25.8081871 165.48499,33.268616 174.658869,33.268616 C183.832749,33.268616 191.293177,25.8081871 191.293177,16.634308 C191.293177,7.46042885 183.832749,0 174.658869,0 Z M174.658869,24.9512671 C170.067836,24.9512671 166.34191,21.2167641 166.34191,16.634308 C166.34191,12.051462 170.067836,8.31734893 174.658869,8.31734893 C179.249903,8.31734893 182.975828,12.0518519 182.975828,16.634308 C182.975828,21.2167641 179.249903,24.9512671 174.658869,24.9512671 Z" id="Shape" fill-rule="nonzero"></path>
                            <path d="M168.787135,22.5060429 C167.165302,20.8842105 164.528655,20.8842105 162.906823,22.5060429 L130.636647,54.7762183 C129.014815,56.3980507 129.014815,59.0346979 130.636647,60.6565302 C131.451852,61.4631579 132.516179,61.8709552 133.580897,61.8709552 C134.637037,61.8709552 135.701754,61.4717349 136.516959,60.6565302 L168.787135,28.3863548 C170.408967,26.7645224 170.408967,24.1278752 168.787135,22.5060429 Z" id="Path"></path>
                            <path d="M114.700975,56.9387914 L87.9863548,49.3204678 C85.7489279,48.6717349 83.4783626,49.9692008 82.8545809,52.1816764 C82.2226121,54.394152 83.5033138,56.6896686 85.7072125,57.3216374 L112.421832,64.939961 C112.804288,65.0479532 113.187135,65.0978558 113.561404,65.0978558 C115.374659,65.0978558 117.037817,63.9083821 117.561793,62.0787524 C118.194152,59.8748538 116.91345,57.5707602 114.700975,56.9387914 Z" id="Path"></path>
                            <path d="M68.3664717,55.0842105 C66.9360624,53.2877193 64.3243665,52.9964912 62.5278752,54.4187135 L31.1723197,79.419883 C29.3758285,80.8588694 29.0764133,83.4701754 30.5153996,85.2666667 C31.3387914,86.2978558 32.5532164,86.8304094 33.7672515,86.8304094 C34.6736842,86.8304094 35.588694,86.5309942 36.3539961,85.9321637 L67.7095517,60.9309942 C69.5060429,59.4920078 69.8054581,56.8807018 68.3664717,55.0842105 Z" id="Path"></path>
                        </g>
                    </g>
                </g>
            </g>
        </g>
    </g>
</svg>