<?xml version="1.0" encoding="UTF-8"?>
<svg width="200px" height="200px" viewBox="0 0 200 200" version="1.1" xmlns="http://www.w3.org/2000/svg" xmlns:xlink="http://www.w3.org/1999/xlink">
    <!-- Generator: sketchtool 52.5 (67469) - http://www.bohemiancoding.com/sketch -->
    <title>51DE734F-DA7B-44CF-A5CF-9B7D821F07EF</title>
    <desc>Created with sketchtool.</desc>
    <g id="web-1024" stroke="none" stroke-width="1" fill="none" fill-rule="evenodd" opacity="0.08">
        <g id="Главная-страница-ui-open-1024" transform="translate(-915.000000, -2790.000000)" fill="#FFFFFF">
            <g id="Group-3-Copy" transform="translate(208.000000, 1688.000000)">
                <g id="Group-5" transform="translate(10.000000, 183.000000)">
                    <g id="Group-11" transform="translate(0.000000, 866.000000)">
                        <g id="Group-7">
                            <g id="Group-20">
                                <g id="investment-icon" transform="translate(697.000000, 53.000000)">
                                    <path d="M200,100 C200,44.8612903 155.13871,0 100,0 C82.7129032,0 65.8709677,4.47741935 50.9387097,12.9032258 L38.7096774,12.9032258 L38.7096774,0 L19.3548387,0 L19.3548387,40.9258065 C6.70967742,58.1516129 0,78.5387097 0,100 C0,155.141935 44.8612903,200 100,200 C112.287097,200 124.280645,197.790323 135.651613,193.448387 C142.141935,197.574194 149.819355,200 158.064516,200 C168.122581,200 177.851613,196.383871 185.458065,189.819355 L181.241935,184.935484 C174.806452,190.490323 166.577419,193.548387 158.064516,193.548387 C138.5,193.548387 122.580645,177.629032 122.580645,158.064516 C122.580645,138.5 138.5,122.580645 158.064516,122.580645 C177.629032,122.580645 193.548387,138.5 193.548387,158.064516 C193.548387,166.241935 190.845161,173.929032 185.725806,180.293548 L190.754839,184.33871 C196.716129,176.922581 200,167.593548 200,158.064516 C200,149.812903 197.570968,142.135484 193.441935,135.641935 C197.780645,124.267742 200,112.287097 200,100 Z M51.6129032,32.2580645 L58.0645161,32.2580645 L58.0645161,38.7096774 L58.0645161,77.4193548 L51.6129032,77.4193548 L51.6129032,32.2580645 Z M38.7096774,19.3548387 L45.1612903,19.3548387 L45.1612903,25.8064516 L45.1612903,77.4193548 L38.7096774,77.4193548 L38.7096774,19.3548387 Z M25.8064516,6.4516129 L32.2580645,6.4516129 L32.2580645,12.9032258 L32.2580645,77.4193548 L25.8064516,77.4193548 L25.8064516,6.4516129 Z M96.7741935,193.467742 C47.7548387,191.793548 8.20645161,152.245161 6.53225806,103.225806 L96.7741935,103.225806 L96.7741935,193.467742 Z M96.7741935,96.7741935 L6.58064516,96.7741935 C7.10645161,81.0709677 11.4677419,66.0645161 19.3548387,52.6870968 L19.3548387,83.8709677 L32.2580645,83.8709677 L38.7096774,83.8709677 L45.1612903,83.8709677 L51.6129032,83.8709677 L58.0645161,83.8709677 L64.516129,83.8709677 L70.9677419,83.8709677 L77.4193548,83.8709677 L90.3225806,83.8709677 L90.3225806,51.6129032 L77.4193548,51.6129032 L77.4193548,38.7096774 L64.516129,38.7096774 L64.516129,25.8064516 L51.6129032,25.8064516 L51.6129032,19.9741935 C65.2612903,11.7032258 80.7709677,7.11290323 96.7741935,6.56451613 L96.7741935,96.7741935 Z M64.516129,77.4193548 L64.516129,45.1612903 L70.9677419,45.1612903 L70.9677419,51.6129032 L70.9677419,77.4193548 L64.516129,77.4193548 Z M77.4193548,77.4193548 L77.4193548,58.0645161 L83.8709677,58.0645161 L83.8709677,77.4193548 L77.4193548,77.4193548 Z M193.467742,96.7741935 L165.851613,96.7741935 L189.574194,73.0516129 C191.851613,80.6032258 193.187097,88.5548387 193.467742,96.7741935 Z M177.212903,47.2580645 L141.183871,83.2870968 L145.745161,87.8483871 L180.745161,52.8483871 C183.248387,57.1193548 185.419355,61.6032258 187.232258,66.2709677 L156.729032,96.7741935 L136.819355,96.7741935 L140.990323,92.6032258 L136.429032,88.0419355 L127.696774,96.7741935 L107.787097,96.7741935 L168.345161,36.216129 C171.564516,39.6677419 174.535484,43.3516129 177.212903,47.2580645 Z M103.225806,6.53225806 C111.445161,6.81290323 119.396774,8.1483871 126.948387,10.4258065 L103.225806,34.1483871 L103.225806,6.53225806 Z M103.225806,72.3032258 L142.429032,33.1 L137.867742,28.5387097 L103.225806,63.1806452 L103.225806,43.2709677 L133.729032,12.7677419 C138.396774,14.5774194 142.880645,16.7483871 147.151613,19.2548387 L141.954839,24.4516129 L146.516129,29.0129032 L152.741935,22.7870968 C156.648387,25.4645161 160.332258,28.4322581 163.783871,31.6548387 L103.225806,92.2129032 L103.225806,72.3032258 Z M158.064516,116.129032 C134.941935,116.129032 116.129032,134.941935 116.129032,158.064516 C116.129032,170.196774 121.33871,181.106452 129.6,188.770968 C121.1,191.606452 112.258065,193.170968 103.225806,193.474194 L103.225806,103.225806 L193.474194,103.225806 C193.170968,112.254839 191.593548,121.090323 188.76129,129.590323 C181.096774,121.332258 170.190323,116.129032 158.064516,116.129032 Z" id="Shape" fill-rule="nonzero"></path>
                                    <polygon id="Rectangle" transform="translate(61.304324, 138.709063) rotate(-45.000000) translate(-61.304324, -138.709063) " points="33.9322074 135.483288 88.6764405 135.483288 88.6764405 141.934839 33.9322074 141.934839"></polygon>
                                    <path d="M74.1935484,141.935484 C68.8580645,141.935484 64.516129,146.277419 64.516129,151.612903 C64.516129,156.948387 68.8580645,161.290323 74.1935484,161.290323 C79.5290323,161.290323 83.8709677,156.948387 83.8709677,151.612903 C83.8709677,146.277419 79.5290323,141.935484 74.1935484,141.935484 Z M74.1935484,154.83871 C72.416129,154.83871 70.9677419,153.393548 70.9677419,151.612903 C70.9677419,149.832258 72.416129,148.387097 74.1935484,148.387097 C75.9709677,148.387097 77.4193548,149.832258 77.4193548,151.612903 C77.4193548,153.393548 75.9709677,154.83871 74.1935484,154.83871 Z" id="Shape" fill-rule="nonzero"></path>
                                    <path d="M48.3870968,116.129032 C43.0516129,116.129032 38.7096774,120.470968 38.7096774,125.806452 C38.7096774,131.141935 43.0516129,135.483871 48.3870968,135.483871 C53.7225806,135.483871 58.0645161,131.141935 58.0645161,125.806452 C58.0645161,120.470968 53.7225806,116.129032 48.3870968,116.129032 Z M48.3870968,129.032258 C46.6096774,129.032258 45.1612903,127.587097 45.1612903,125.806452 C45.1612903,124.025806 46.6096774,122.580645 48.3870968,122.580645 C50.1645161,122.580645 51.6129032,124.025806 51.6129032,125.806452 C51.6129032,127.587097 50.1645161,129.032258 48.3870968,129.032258 Z" id="Shape" fill-rule="nonzero"></path>
                                    <path d="M158.064516,154.83871 C154.506452,154.83871 151.612903,151.945161 151.612903,148.387097 C151.612903,144.829032 154.506452,141.935484 158.064516,141.935484 C161.622581,141.935484 164.516129,144.829032 164.516129,148.387097 L170.967742,148.387097 C170.967742,142.390323 166.83871,137.383871 161.290323,135.941935 L161.290323,129.032258 L154.83871,129.032258 L154.83871,135.941935 C149.290323,137.383871 145.16129,142.390323 145.16129,148.387097 C145.16129,155.503226 150.948387,161.290323 158.064516,161.290323 C161.622581,161.290323 164.516129,164.183871 164.516129,167.741935 C164.516129,171.3 161.622581,174.193548 158.064516,174.193548 C154.506452,174.193548 151.612903,171.3 151.612903,167.741935 L145.16129,167.741935 C145.16129,173.73871 149.290323,178.745161 154.83871,180.187097 L154.83871,187.096774 L161.290323,187.096774 L161.290323,180.187097 C166.83871,178.745161 170.967742,173.73871 170.967742,167.741935 C170.967742,160.625806 165.180645,154.83871 158.064516,154.83871 Z" id="Path"></path>
                                    <rect id="Rectangle" x="180.645161" y="154.83871" width="6.4516129" height="6.4516129"></rect>
                                    <rect id="Rectangle" x="129.032258" y="154.83871" width="6.4516129" height="6.4516129"></rect>
                                </g>
                            </g>
                        </g>
                    </g>
                </g>
            </g>
        </g>
    </g>
</svg>